{"accessors":[{"bufferView":0,"byteOffset":0,"componentType":5126,"count":1,"max":[0],"min":[0],"normalized":false,"type":"SCALAR"},{"bufferView":1,"byteOffset":0,"componentType":5126,"count":1,"max":[145,-52,0],"min":[145,-52,0],"normalized":false,"type":"VEC3"},{"bufferView":2,"byteOffset":0,"componentType":5126,"count":2,"max":[1],"min":[0],"normalized":false,"type":"SCALAR"},{"bufferView":3,"byteOffset":0,"componentType":5126,"count":2,"max":[198,-52,0],"min":[145,-52,0],"normalized":false,"type":"VEC3"}],"animations":[{"channels":[{"sampler":0,"target":{"node":9,"path":"translation"}}],"name":"RESET","samplers":[{"input":0,"interpolation":"LINEAR","output":1}]},{"channels":[{"sampler":0,"target":{"node":9,"path":"translation"}}],"name":"move","samplers":[{"input":2,"interpolation":"LINEAR","output":3}]}],"asset":{"generator":"Godot Engine v4.3.stable.official@77dcf97d82cbfe4e4615475fa52ca03da645dbd8","version":"2.0"},"bufferViews":[{"buffer":0,"byteLength":4,"byteOffset":0},{"buffer":0,"byteLength":12,"byteOffset":4},{"buffer":0,"byteLength":8,"byteOffset":16},{"buffer":0,"byteLength":24,"byteOffset":24}],"buffers":[{"byteLength":48,"uri":"game0.bin"}],"extensionsUsed":["GODOT_single_root"],"nodes":[{"children":[1,2,6,9,13,26],"name":"Game"},{"name":"TileMapLayer"},{"children":[3,4,5],"name":"Player"},{"name":"AnimatedSprite2D"},{"name":"CollisionShape2D"},{"name":"Camera2D"},{"children":[7,8],"name":"Platform"},{"name":"CollisionShape2D2"},{"name":"Sprite2D"},{"children":[10,11,12],"name":"Platform2"},{"name":"CollisionShape2D3"},{"name":"Sprite2D2"},{"name":"AnimationPlayer"},{"children":[14,17,20,23],"name":"Coins"},{"children":[15,16],"name":"Coin"},{"name":"AnimatedSprite2D2"},{"name":"CollisionShape2D4"},{"children":[18,19],"name":"Coin2"},{"name":"AnimatedSprite2D3"},{"name":"CollisionShape2D5"},{"children":[21,22],"name":"Coin3"},{"name":"AnimatedSprite2D4"},{"name":"CollisionShape2D6"},{"children":[24,25],"name":"Coin4"},{"name":"AnimatedSprite2D5"},{"name":"CollisionShape2D7"},{"children":[27,28],"name":"Killzone"},{"name":"Timer"},{"name":"CollisionShape2D8"}],"scene":0,"scenes":[{"nodes":[0]}]}